<mxfile host="app.diagrams.net" modified="2024-05-28T04:07:01.147Z" agent="Mozilla/5.0 (Windows NT 10.0; Win64; x64) AppleWebKit/537.36 (KHTML, like Gecko) Chrome/125.0.0.0 Safari/537.36" version="24.4.9" etag="Tz-RZmSjowMBw_Cn6w41" type="github">
  <diagram name="Page-1" id="fPj5VK5BWqZONE03JprT">
    <mxGraphModel>
      <root>
        <mxCell id="0" />
        <mxCell id="1" parent="0" />
      </root>
    </mxGraphModel>
  </diagram>
</mxfile>
